<?xml version="1.0" encoding="utf-8"?>
<!-- Generator: Adobe Illustrator 13.0.0, SVG Export Plug-In . SVG Version: 6.00 Build 14948)  -->
<!DOCTYPE svg PUBLIC "-//W3C//DTD SVG 1.1//EN" "http://www.w3.org/Graphics/SVG/1.1/DTD/svg11.dtd">
<svg version="1.1" id="Layer_1" xmlns="http://www.w3.org/2000/svg" xmlns:xlink="http://www.w3.org/1999/xlink" x="0px" y="0px"
	 width="720px" height="174.684px" viewBox="0 0 720 174.684" enable-background="new 0 0 720 174.684" xml:space="preserve">
<g>
	<path d="M255.122,120.707c-1.774,0-7.998,0.248-9.406,0.248v-1.648c2.679-0.636,4.323-3.048,4.323-5.084V95.144h-30.171v19.078
		c0,2.036,1.662,4.328,4.451,5.084v1.648c-1.398,0-7.752-0.248-9.521-0.248c-1.533,0-7.499,0.248-8.902,0.248v-1.648
		c2.67-0.636,4.319-3.048,4.319-5.084V74.405c0-1.91-1.522-4.323-4.319-5.086v-1.646c1.403,0,7.369,0.253,8.902,0.253
		c1.77,0,8.123-0.253,9.521-0.253v1.646c-2.669,0.643-4.451,3.053-4.451,5.086v15.651h30.171V74.405
		c0-2.033-1.521-4.443-4.323-5.086v-1.646c1.408,0,7.632,0.253,9.406,0.253c1.528,0,7.625-0.253,9.024-0.253v1.646
		c-2.666,0.643-4.452,3.053-4.452,5.086v39.816c0,1.912,1.655,4.328,4.452,5.084v1.648
		C262.747,120.954,256.65,120.707,255.122,120.707"/>
	<path d="M320.418,119.559c-2.038,1.395-4.699,3.555-4.699,3.555c-1.785-1.651-5.206-5.082-5.852-9.778
		c-4.449,4.452-10.667,8.507-18.551,8.507c-10.917,0-15.619-6.98-15.619-15.493V81.198c0-4.066-2.283-5.966-6.479-6.867v-1.4
		l14.734-5.837h1.391v32.134c0,9.027,1.912,16.145,10.938,16.145c5.716,0,10.669-3.816,13.212-6.994v-27.18
		c0-4.066-2.281-5.966-6.479-6.867v-1.4l14.733-5.837h1.398v42.688c0,4.058,1.272,5.082,2.784,5.082
		c0.901,0,2.299-0.138,2.932-0.509l0.894,2.027C325.755,116.381,323.089,117.788,320.418,119.559"/>
	<path d="M404.999,120.707c-1.647,0-8.768,0.248-10.292,0.248v-1.519c2.666-1.147,5.591-2.545,5.591-4.95V89.708
		c0-9.016-0.507-16.143-9.528-16.143c-5.079,0-10.034,2.932-12.964,5.855c0.129,1.009,0.129,2.16,0.129,3.172v31.895
		c0,2.528,2.672,3.679,5.715,4.95v1.519c-1.648,0-9.021-0.248-10.67-0.248c-1.647,0-8.769,0.248-10.29,0.248v-1.519
		c2.664-1.147,5.588-2.545,5.588-4.95V89.708c0-9.016-0.506-16.143-9.533-16.143c-5.71,0-10.156,3.819-12.697,6.99v33.932
		c0,2.528,2.665,3.679,5.718,4.95v1.519c-1.656,0-9.026-0.248-10.67-0.248c-1.656,0-8.775,0.248-10.295,0.248v-1.519
		c2.667-1.147,5.592-2.545,5.592-4.95V81.198c0-4.062-2.289-5.966-6.485-6.864v-1.4l14.229-5.843h1.396l0.517,8.265
		c4.577-4.319,9.785-8.265,17.657-8.265c7.498,0,11.441,3.427,13.089,8.265c4.573-4.319,11.176-8.265,18.926-8.265
		c10.929,0,14.235,6.993,14.235,15.501v31.895c0,2.528,2.664,3.679,5.715,4.95v1.519
		C414.016,120.954,406.647,120.707,404.999,120.707"/>
	<path d="M463.324,119.559c-2.03,1.395-4.701,3.555-4.701,3.555c-1.772-1.651-3.938-4.443-5.203-8.003
		c-3.689,4.066-9.663,6.732-16.39,6.732c-9.662,0-16.519-4.573-16.519-14.86c0-9.654,9.146-14.609,18.42-16.263
		c2.542-0.381,10.669-0.509,13.459-0.509V81.95c0-5.71-3.549-10.414-11.3-10.414c-6.226,0-10.422,3.047-13.47,8.392h-1.648V69.63
		c4.826-1.394,10.417-2.537,17.92-2.537c15.118,0,18.161,7.746,18.161,16.265v26.423c0,4.058,1.271,5.082,2.789,5.082
		c0.895,0,2.284-0.138,2.937-0.509l0.883,2.027C468.662,116.381,465.99,117.788,463.324,119.559 M452.391,94.277h-7.486
		c-7.5,0-14.105,4.066-14.105,12.197c0,5.844,3.942,9.266,8.766,9.266c5.081,0,10.166-2.781,12.826-7.109V94.277z"/>
	<path d="M517.842,120.707c-1.653,0-8.774,0.248-10.293,0.248v-1.519c2.666-1.147,5.591-2.545,5.591-4.95V89.708
		c0-9.016-3.565-16.143-12.576-16.143c-5.726,0-10.681,3.819-13.217,6.99v33.932c0,2.528,2.666,3.679,5.72,4.95v1.519
		c-1.653,0-9.021-0.248-10.684-0.248c-1.646,0-8.76,0.248-10.284,0.248v-1.519c2.672-1.147,5.597-2.545,5.597-4.95V81.198
		c0-4.062-2.289-5.966-6.479-6.864v-1.4l14.224-5.843h1.39l0.518,8.265c4.578-4.319,10.281-8.265,18.167-8.265
		c10.922,0,17.272,6.993,17.272,15.501v31.895c0,2.528,2.677,3.679,5.726,4.95v1.519
		C526.858,120.954,519.484,120.707,517.842,120.707"/>
	<path d="M544.777,120.707c-1.648,0-8.769,0.248-10.287,0.248v-1.519c2.666-1.147,5.585-2.545,5.585-4.95V81.198
		c0-4.062-2.283-5.966-6.479-6.864v-1.4l14.742-5.843h1.395v47.396c0,2.528,2.663,3.679,5.714,4.95v1.519
		C553.799,120.954,546.431,120.707,544.777,120.707"/>
	<path d="M580.228,121.843c-6.097,0-12.062-2.917-12.062-14.86V72.806h-7.877v-3.045l6.856-2.042
		c3.679-3.292,5.464-8.383,6.474-14.345h4.19V67.98h15.63v4.826h-15.63v32.526c0,6.729,2.165,9.021,6.107,9.021
		c3.803,0,6.221-1.91,7.875-3.692l2.036,1.906C592.433,115.234,587.467,121.843,580.228,121.843"/>
	<path d="M610.729,120.707c-1.654,0-8.774,0.248-10.293,0.248v-1.519c2.674-1.147,5.596-2.545,5.596-4.95V81.198
		c0-4.062-2.289-5.966-6.484-6.864v-1.4l14.73-5.843h1.403v47.396c0,2.528,2.671,3.679,5.72,4.95v1.519
		C619.748,120.954,612.371,120.707,610.729,120.707"/>
	<path d="M673.874,90.211h-36.077c-1.654,14.604,6.479,25.529,18.543,25.529c6.868,0,11.562-1.136,14.742-4.438l2.159,2.413
		c-2.798,3.302-8.513,8.127-18.538,8.127c-17.925,0-27.446-10.92-27.446-27.441c0-16.768,11.555-27.308,25.405-27.308
		c13.462,0,22.235,9.529,21.598,20.452C674.26,88.441,674.127,89.581,673.874,90.211 M652.785,71.661
		c-8.386,0-13.335,7.756-14.477,14.231h25.658C664.855,79.549,660.795,71.661,652.785,71.661"/>
	<path d="M699.679,121.843c-5.222,0-11.692-1.26-16.013-2.537v-11.179h1.654c3.554,6.358,7.615,9.143,14.224,9.143
		c7.244,0,11.188-2.666,11.188-7.368c0-3.043-1.524-5.087-4.196-6.35l-15.754-7.742c-5.082-2.55-8.263-6.485-8.263-12.708
		c0-10.425,9.41-16.009,19.444-16.009c5.208,0,11.688,1.27,16.001,2.537v10.799h-1.647c-2.784-4.952-7.486-8.768-14.101-8.768
		c-6.227,0-10.163,3.315-10.163,8.012c0,4.072,1.529,6.093,5.714,8.126l16.007,7.756c2.802,1.392,6.227,4.82,6.227,10.672
		C720,116.258,712.132,121.843,699.679,121.843"/>
	<polyline points="209.23,36.609 213.319,36.609 219.126,46.1 219.165,46.1 219.165,36.609 222.176,36.609 222.176,50.268 
		218.238,50.268 212.277,40.546 212.24,40.546 212.24,50.268 209.23,50.268 209.23,36.609 	"/>
	<path d="M230.027,36.609h2.491l5.94,13.659h-3.396l-1.177-2.896h-5.306l-1.137,2.896h-3.317L230.027,36.609 M231.186,40.583
		l-1.656,4.245h3.335L231.186,40.583z"/>
	<polyline points="241.296,39.272 237.399,39.272 237.399,36.609 248.201,36.609 248.201,39.272 244.305,39.272 244.305,50.268 
		241.296,50.268 241.296,39.272 	"/>
	<rect x="250.27" y="36.609" width="3.009" height="13.659"/>
	<path d="M263.233,36.263c4.262,0,7.369,2.797,7.369,7.177s-3.107,7.175-7.369,7.175c-4.265,0-7.372-2.795-7.372-7.175
		S258.969,36.263,263.233,36.263 M263.233,47.837c2.566,0,4.242-1.852,4.242-4.397c0-2.546-1.676-4.397-4.242-4.397
		c-2.568,0-4.245,1.851-4.245,4.397C258.988,45.985,260.665,47.837,263.233,47.837z"/>
	<polyline points="273.229,36.609 277.318,36.609 283.123,46.1 283.164,46.1 283.164,36.609 286.17,36.609 286.17,50.268 
		282.237,50.268 276.275,40.546 276.238,40.546 276.238,50.268 273.229,50.268 273.229,36.609 	"/>
	<path d="M294.022,36.609h2.492l5.94,13.659h-3.396l-1.179-2.896h-5.304l-1.138,2.896h-3.316L294.022,36.609 M295.18,40.583
		l-1.654,4.245h3.334L295.18,40.583z"/>
	<polyline points="304.522,36.609 307.531,36.609 307.531,47.491 313.106,47.491 313.106,50.268 304.522,50.268 304.522,36.609 	"/>
	<polyline points="320.19,36.609 329.47,36.609 329.47,39.388 323.199,39.388 323.199,41.934 329.121,41.934 329.121,44.712 
		323.199,44.712 323.199,47.491 329.818,47.491 329.818,50.268 320.19,50.268 320.19,36.609 	"/>
	<polyline points="332.811,36.609 336.899,36.609 342.705,46.1 342.741,46.1 342.741,36.609 345.751,36.609 345.751,50.268 
		341.817,50.268 335.855,40.546 335.819,40.546 335.819,50.268 332.811,50.268 332.811,36.609 	"/>
	<path d="M349.111,36.609h4.517c4.396,0,8.079,1.872,8.079,6.869c0,4.417-3.605,6.79-7.678,6.79h-4.918V36.609 M352.122,47.491
		h1.563c2.795,0,4.897-1.062,4.897-4.166c0-2.684-2.139-3.937-4.688-3.937h-1.772V47.491z"/>
	<path d="M370.972,36.263c4.261,0,7.368,2.797,7.368,7.177s-3.107,7.175-7.368,7.175c-4.263,0-7.369-2.795-7.369-7.175
		S366.709,36.263,370.972,36.263 M370.972,47.837c2.564,0,4.244-1.852,4.244-4.397c0-2.546-1.68-4.397-4.244-4.397
		c-2.567,0-4.246,1.851-4.246,4.397C366.726,45.985,368.404,47.837,370.972,47.837z"/>
	<polyline points="379.538,36.609 382.816,36.609 384.996,45.366 385.036,45.366 387.89,36.609 390.688,36.609 393.522,45.6 
		393.562,45.6 395.857,36.609 398.905,36.609 394.912,50.268 392.232,50.268 389.223,40.816 389.184,40.816 386.175,50.268 
		383.59,50.268 379.538,36.609 	"/>
	<polyline points="400.82,36.609 405.373,36.609 408.518,45.522 408.554,45.522 411.718,36.609 416.251,36.609 416.251,50.268 
		413.242,50.268 413.242,39.794 413.205,39.794 409.617,50.268 407.319,50.268 403.869,39.794 403.83,39.794 403.83,50.268 
		400.82,50.268 400.82,36.609 	"/>
	<polyline points="419.727,36.609 429.005,36.609 429.005,39.388 422.736,39.388 422.736,41.934 428.658,41.934 428.658,44.712 
		422.736,44.712 422.736,47.491 429.354,47.491 429.354,50.268 419.727,50.268 419.727,36.609 	"/>
	<polyline points="432.346,36.609 436.435,36.609 442.241,46.1 442.278,46.1 442.278,36.609 445.29,36.609 445.29,50.268 
		441.353,50.268 435.394,40.546 435.354,40.546 435.354,50.268 432.346,50.268 432.346,36.609 	"/>
	<polyline points="451.291,39.272 447.394,39.272 447.394,36.609 458.195,36.609 458.195,39.272 454.3,39.272 454.3,50.268 
		451.291,50.268 451.291,39.272 	"/>
	<polyline points="465.184,36.609 474.346,36.609 474.346,39.388 468.192,39.388 468.192,42.167 473.885,42.167 473.885,44.946 
		468.192,44.946 468.192,50.268 465.184,50.268 465.184,36.609 	"/>
	<path d="M483.725,36.263c4.26,0,7.368,2.797,7.368,7.177s-3.108,7.175-7.368,7.175c-4.264,0-7.371-2.795-7.371-7.175
		S479.461,36.263,483.725,36.263 M483.725,47.837c2.564,0,4.243-1.852,4.243-4.397c0-2.546-1.679-4.397-4.243-4.397
		c-2.567,0-4.247,1.851-4.247,4.397C479.478,45.985,481.157,47.837,483.725,47.837z"/>
	<path d="M493.719,36.609h5.284c2.798,0,5.152,0.965,5.152,4.149c0,1.91-1.024,3.396-2.953,3.742l3.473,5.768h-3.607l-2.854-5.457
		h-1.485v5.457h-3.009V36.609 M496.728,42.262h1.775c1.099,0,2.527-0.037,2.527-1.523c0-1.368-1.237-1.581-2.334-1.581h-1.969
		V42.262z"/>
	<polyline points="514.191,39.272 510.294,39.272 510.294,36.609 521.096,36.609 521.096,39.272 517.201,39.272 517.201,50.268 
		514.191,50.268 514.191,39.272 	"/>
	<polyline points="523.202,36.609 526.211,36.609 526.211,41.704 532.055,41.704 532.055,36.609 535.063,36.609 535.063,50.268 
		532.055,50.268 532.055,44.364 526.211,44.364 526.211,50.268 523.202,50.268 523.202,36.609 	"/>
	<polyline points="538.54,36.609 547.817,36.609 547.817,39.388 541.549,39.388 541.549,41.934 547.472,41.934 547.472,44.712 
		541.549,44.712 541.549,47.491 548.166,47.491 548.166,50.268 538.54,50.268 538.54,36.609 	"/>
	<path fill="#D4D88D" d="M96.678,87.347c0,5.159-4.165,9.333-9.345,9.333c-5.132,0-9.325-4.173-9.325-9.335
		c0-5.155,4.193-9.337,9.325-9.334C92.516,78.005,96.678,82.192,96.678,87.347"/>
	<path fill="#D4D88D" d="M81.686,5.499C81.415,0.843,83.25-0.011,87.361,0c4.083,0.008,5.924,0.855,5.635,5.518l-3.893,56.954
		c-0.158,1.281-0.723,4.092-1.851,4.092c-1.141,0-1.694-2.833-1.846-4.092L81.686,5.499"/>
	<path fill="#B2BB1E" d="M141.212,25.473c3.107-3.487,5.002-2.79,7.905,0.118c2.883,2.898,3.586,4.798,0.083,7.891l-43.025,37.522
		c-1.02,0.793-3.41,2.385-4.204,1.584c-0.81-0.81,0.806-3.206,1.589-4.201L141.212,25.473"/>
	<path fill="#B2BB1E" d="M169.183,81.682c4.662-0.262,5.512,1.563,5.503,5.679c-0.006,4.079-0.857,5.924-5.518,5.637l-56.957-3.895
		c-1.279-0.162-4.096-0.72-4.096-1.852c0-1.144,2.84-1.69,4.099-1.846L169.183,81.682"/>
	<path fill="#B2BB1E" d="M149.211,141.208c3.484,3.105,2.792,5-0.12,7.902c-2.895,2.886-4.798,3.589-7.89,0.09l-37.518-43.032
		c-0.792-1.015-2.386-3.403-1.586-4.201c0.806-0.81,3.205,0.81,4.204,1.591L149.211,141.208"/>
	<path fill="#B2BB1E" d="M93,169.178c0.269,4.662-1.563,5.512-5.672,5.506c-4.086-0.012-5.924-0.86-5.641-5.518l3.899-56.958
		c0.154-1.276,0.717-4.094,1.846-4.094c1.146,0,1.693,2.84,1.845,4.1L93,169.178"/>
	<path fill="#B2BB1E" d="M33.474,149.211c-3.107,3.481-4.999,2.789-7.902-0.118c-2.885-2.896-3.581-4.804-0.085-7.891l43.028-37.523
		c1.014-0.79,3.407-2.382,4.202-1.583c0.812,0.804-0.809,3.2-1.589,4.201L33.474,149.211"/>
	<path fill="#B2BB1E" d="M5.503,92.998c-4.66,0.27-5.512-1.563-5.503-5.669c0.006-4.089,0.859-5.931,5.518-5.641l56.956,3.896
		c1.278,0.156,4.095,0.72,4.095,1.846c0.002,1.141-2.84,1.693-4.095,1.849L5.503,92.998"/>
	<path fill="#B2BB1E" d="M25.475,33.471c-3.484-3.099-2.794-5,0.118-7.896c2.894-2.886,4.801-3.588,7.89-0.089L71,68.516
		c0.794,1.011,2.386,3.404,1.589,4.196c-0.806,0.814-3.202-0.81-4.202-1.588L25.475,33.471"/>
	<path fill="#B2BB1E" d="M97.607,61.127c-0.544,1.756-0.714,3.639-1.264,5.37c-0.515,1.63-0.835,2.126-2.437,1.619
		c-2.562-0.82,0.357-9.98,0.79-11.329c3.74-11.706,20.295-23.184,23.579-33.43c1.842-5.793-1.003-12.187-7.073-14.113
		c-5.248-1.682-7.453,1.48-9.325,0.875c-0.542-0.163-0.772-0.836-0.589-1.385c0.806-2.553,6.43-6.246,16.685-2.979
		c8.34,2.672,13.192,11.64,10.516,19.988C123.978,39.878,103.493,42.674,97.607,61.127"/>
	<path fill="#B2BB1E" d="M113.141,76.064c-1.632,0.857-3.075,2.067-4.696,2.902c-1.512,0.789-2.091,0.916-2.863-0.579
		c-1.229-2.392,7.312-6.807,8.564-7.447c10.928-5.633,30.746-2.044,40.319-6.971c5.394-2.79,7.907-9.324,4.976-14.978
		c-2.522-4.897-6.314-4.229-7.216-5.975c-0.263-0.498,0.045-1.143,0.566-1.403c2.377-1.234,8.964,0.131,13.906,9.699
		c4.004,7.787,1.097,17.555-6.701,21.564C146.81,79.684,130.35,67.178,113.141,76.064"/>
	<path fill="#B2BB1E" d="M113.558,97.61c-1.762-0.548-3.635-0.717-5.374-1.271c-1.63-0.509-2.122-0.827-1.611-2.43
		c0.82-2.567,9.978,0.36,11.319,0.788c11.709,3.74,23.191,20.295,33.44,23.58c5.784,1.848,12.187-1.007,14.112-7.076
		c1.682-5.245-1.48-7.452-0.881-9.322c0.17-0.537,0.844-0.773,1.394-0.59c2.549,0.807,6.247,6.429,2.975,16.688
		c-2.676,8.344-11.64,13.187-19.987,10.506C134.805,123.972,132.012,103.496,113.558,97.61"/>
	<path fill="#B2BB1E" d="M98.618,113.133c-0.854-1.628-2.061-3.074-2.899-4.693c-0.796-1.51-0.917-2.087,0.575-2.857
		c2.396-1.234,6.806,7.303,7.45,8.563c5.63,10.925,2.049,30.751,6.973,40.312c2.787,5.399,9.324,7.914,14.979,4.978
		c4.896-2.517,4.222-6.313,5.976-7.219c0.495-0.256,1.14,0.054,1.396,0.568c1.239,2.379-0.129,8.965-9.694,13.909
		c-7.787,4.004-17.553,1.091-21.57-6.702C95.005,146.807,107.502,130.347,98.618,113.133"/>
	<path fill="#B2BB1E" d="M77.073,113.563c0.547-1.766,0.72-3.642,1.272-5.382c0.51-1.628,0.83-2.121,2.428-1.611
		c2.568,0.821-0.352,9.98-0.783,11.322c-3.75,11.716-20.3,23.189-23.586,33.437c-1.836,5.793,1.005,12.196,7.076,14.111
		c5.245,1.682,7.449-1.471,9.328-0.886c0.536,0.175,0.769,0.844,0.593,1.403c-0.81,2.548-6.44,6.246-16.692,2.967
		c-8.342-2.671-13.185-11.64-10.513-19.98C50.708,134.807,71.187,132.009,77.073,113.563"/>
	<path fill="#B2BB1E" d="M61.54,98.62c1.632-0.858,3.083-2.067,4.702-2.896c1.513-0.799,2.088-0.917,2.854,0.571
		c1.239,2.396-7.3,6.806-8.556,7.452c-10.931,5.63-30.743,2.047-40.321,6.969c-5.391,2.784-7.908,9.325-4.973,14.98
		c2.52,4.894,6.309,4.221,7.217,5.968c0.259,0.503-0.052,1.147-0.568,1.406c-2.372,1.229-8.97-0.129-13.904-9.699
		c-4.001-7.79-1.097-17.551,6.699-21.566C27.876,95,44.333,107.5,61.54,98.62"/>
	<path fill="#B2BB1E" d="M61.125,77.075c1.759,0.547,3.641,0.723,5.375,1.27c1.629,0.506,2.125,0.832,1.613,2.427
		c-0.821,2.572-9.979-0.352-11.324-0.778C45.08,76.243,33.603,59.693,23.351,56.407c-5.782-1.841-12.187,1.002-14.113,7.075
		c-1.679,5.244,1.478,7.453,0.884,9.33c-0.17,0.536-0.844,0.766-1.391,0.588C6.18,72.591,2.48,66.961,5.757,56.715
		c2.678-8.348,11.637-13.187,19.982-10.519C39.878,50.714,42.671,71.188,61.125,77.075"/>
	<path fill="#B2BB1E" d="M76.064,61.542c0.855,1.633,2.059,3.086,2.899,4.702c0.793,1.506,0.919,2.088-0.572,2.857
		c-2.399,1.235-6.811-7.309-7.45-8.567c-5.635-10.925-2.044-30.741-6.976-40.315c-2.784-5.394-9.324-7.908-14.979-4.971
		c-4.899,2.517-4.228,6.309-5.97,7.219c-0.498,0.257-1.144-0.055-1.396-0.569c-1.239-2.379,0.129-8.968,9.689-13.903
		c7.79-4.006,17.555-1.1,21.57,6.693C79.681,27.877,67.184,44.335,76.064,61.542"/>
</g>
</svg>
